<svg width="760" height="315" viewBox="0 0 760 315" fill="none" xmlns="http://www.w3.org/2000/svg">
<rect width="760" height="315" rx="69" fill="#5F33E1"/>
<path d="M141.123 215.923C136.431 215.923 132.479 214.563 129.269 211.843C126.058 208.875 124.453 205.042 124.453 200.344V103.528C124.453 96.1094 120.749 92.4 113.34 92.4H95.1881C90.7428 92.4 87.0384 91.0399 84.0749 88.3197C81.3583 85.3521 80 81.6427 80 77.1915C80 72.7402 81.3583 69.1544 84.0749 66.4342C87.0384 63.4667 90.7428 61.9829 95.1881 61.9829H186.687C191.38 61.9829 195.084 63.4667 197.8 66.4342C200.764 69.1544 202.246 72.7402 202.246 77.1915C202.246 81.6427 200.764 85.3521 197.8 88.3197C195.084 91.0399 191.38 92.4 186.687 92.4H168.906C161.497 92.4 157.793 96.1094 157.793 103.528V200.344C157.793 205.042 156.188 208.875 152.977 211.843C150.013 214.563 146.062 215.923 141.123 215.923Z" fill="white"/>
<path d="M259.375 215.923C242.828 215.923 229.369 210.73 218.997 200.344C208.871 189.71 203.809 175.614 203.809 158.056C203.809 140.499 208.748 126.65 218.626 116.511C228.752 106.125 241.964 100.932 258.264 100.932C269.871 100.932 279.996 105.012 288.64 113.173C289.628 110.205 291.48 107.732 294.196 105.754C296.913 103.776 300.123 102.786 303.828 102.786C308.767 102.786 312.718 104.27 315.682 107.238C318.893 109.958 320.498 113.296 320.498 117.253V201.456C320.498 205.66 318.893 209.122 315.682 211.843C312.718 214.563 308.767 215.923 303.828 215.923C295.678 215.923 290.615 212.337 288.64 205.166C280.737 212.337 270.982 215.923 259.375 215.923ZM261.968 185.877C269.871 185.877 276.168 183.28 280.86 178.087C285.553 172.647 287.899 165.97 287.899 158.056C287.899 149.896 285.553 143.342 280.86 138.397C276.168 133.451 269.871 130.978 261.968 130.978C254.312 130.978 248.015 133.451 243.075 138.397C238.383 143.342 236.037 149.896 236.037 158.056C236.037 165.97 238.383 172.647 243.075 178.087C248.015 183.28 254.312 185.877 261.968 185.877Z" fill="white"/>
<path d="M386.85 215.923C370.057 215.923 356.227 212.461 345.361 205.537C343.138 204.053 341.533 202.322 340.545 200.344C339.557 198.118 339.063 196.016 339.063 194.038C339.063 189.834 340.422 186.001 343.138 182.538C346.102 179.076 349.683 177.345 353.881 177.345C355.857 177.345 357.832 177.84 359.808 178.829C364.253 180.807 369.316 182.538 374.996 184.022C380.676 185.259 385.862 185.877 390.555 185.877C399.692 185.877 404.261 183.775 404.261 179.571C404.261 177.098 403.15 174.996 400.927 173.265C398.704 171.287 393.518 169.926 385.368 169.185C382.158 168.937 377.96 168.443 372.773 167.701C367.834 166.959 362.895 165.599 357.956 163.621C353.017 161.395 348.818 158.18 345.361 153.976C342.15 149.772 340.545 144.084 340.545 136.913C340.545 125.785 344.743 117.006 353.14 110.576C361.537 104.146 372.773 100.932 386.85 100.932C395 100.932 402.656 101.797 409.818 103.528C417.226 105.259 422.783 107.856 426.488 111.318C429.945 114.533 431.674 118.242 431.674 122.446C431.674 126.156 430.315 129.494 427.599 132.462C424.882 135.429 421.425 136.913 417.226 136.913C415.004 136.913 412.905 136.418 410.929 135.429C407.965 133.451 404.138 131.967 399.445 130.978C395 129.989 390.431 129.494 385.739 129.494C376.354 129.494 371.662 131.472 371.662 135.429C371.662 137.16 372.527 138.768 374.255 140.251C376.231 141.488 380.553 142.601 387.221 143.59C391.419 144.084 396.235 144.826 401.668 145.815C407.101 146.557 412.287 148.041 417.226 150.267C422.413 152.245 426.734 155.583 430.192 160.282C433.649 164.981 435.378 171.41 435.378 179.571C435.378 190.699 430.933 199.602 422.042 206.279C413.152 212.708 401.421 215.923 386.85 215.923Z" fill="white"/>
<path d="M472.437 215.923C467.744 215.923 463.793 214.563 460.583 211.843C457.372 209.122 455.767 205.66 455.767 201.456V63.4667C455.767 59.51 457.249 56.1715 460.212 53.4513C463.423 50.4838 467.498 49 472.437 49C477.129 49 480.957 50.4838 483.92 53.4513C486.884 56.1715 488.366 59.6336 488.366 63.8376V127.639C488.366 130.607 489.23 132.091 490.959 132.091C491.453 132.091 492.441 131.596 493.922 130.607L529.855 103.899C532.819 101.921 536.029 100.932 539.487 100.932C543.685 100.932 547.143 102.415 549.859 105.383C552.576 108.35 553.934 111.813 553.934 115.769C553.934 121.21 551.464 125.537 546.525 128.752L517.26 148.041C514.791 149.772 513.556 151.627 513.556 153.605C513.556 155.583 514.544 157.191 516.519 158.427L550.23 188.844C552.452 190.575 553.934 192.554 554.675 194.779C555.416 197.005 555.786 199.107 555.786 201.085C555.786 205.042 554.181 208.504 550.97 211.472C548.007 214.439 544.426 215.923 540.228 215.923C536.029 215.923 532.325 214.316 529.114 211.101L492.811 175.491C492.07 174.749 491.206 174.378 490.218 174.378C488.983 174.378 488.366 175.367 488.366 177.345V201.085C488.366 205.289 486.761 208.875 483.55 211.843C480.586 214.563 476.882 215.923 472.437 215.923Z" fill="white"/>
<path d="M563.311 115.769C563.311 110.823 565.039 107.114 568.497 104.641C571.954 102.168 575.906 100.932 580.351 100.932C583.808 100.932 586.772 101.921 589.241 103.899C591.958 105.63 593.81 108.103 594.798 111.318L617.765 167.33C619 170.545 620.729 172.152 622.952 172.152C625.174 172.152 626.78 170.545 627.767 167.33L647.771 111.318C649.006 107.856 650.982 105.259 653.698 103.528C656.662 101.797 659.749 100.932 662.959 100.932C667.158 100.932 670.986 102.292 674.443 105.012C678.148 107.732 680 111.318 680 115.769C680 118.242 679.506 120.591 678.518 122.817L620.729 256.356C619 260.065 616.778 262.662 614.061 264.145C611.591 265.876 608.998 266.742 606.282 266.742C601.837 266.742 597.762 265.135 594.057 261.92C590.6 258.952 588.871 255.366 588.871 251.162C588.871 248.937 589.365 246.958 590.353 245.227L610.357 209.617C606.158 208.381 602.824 205.289 600.355 200.344L564.422 122.446C563.681 120.221 563.311 117.995 563.311 115.769Z" fill="#F5F876"/>
</svg>
