<svg width="24" height="24" viewBox="0 0 24 24" fill="none" xmlns="http://www.w3.org/2000/svg">
<path d="M9.47 14.5301L14.53 9.47008C15.18 10.1201 15.58 11.0101 15.58 12.0001C15.58 13.9801 13.98 15.5801 12 15.5801C11.01 15.5801 10.12 15.1801 9.47 14.5301Z" stroke="#292D32" stroke-width="1.5" stroke-linecap="round" stroke-linejoin="round"/>
<path d="M6.18 18.23C7.93 19.55 9.93 20.27 12 20.27C15.53 20.27 18.82 18.19 21.11 14.59C22.01 13.18 22.01 10.81 21.11 9.40002C20.32 8.16002 19.4 7.09002 18.4 6.23002" stroke="#292D32" stroke-width="1.5" stroke-linecap="round" stroke-linejoin="round"/>
<path d="M15.58 4.47007C14.44 3.99007 13.23 3.73007 12 3.73007C8.47 3.73007 5.18 5.81007 2.89 9.41007C1.99 10.8201 1.99 13.1901 2.89 14.6001C3.22 15.1201 3.58 15.6101 3.95 16.0701" stroke="#292D32" stroke-width="1.5" stroke-linecap="round" stroke-linejoin="round"/>
<path d="M8.49 11.3C8.75 9.89005 9.90001 8.74005 11.31 8.48005" stroke="#292D32" stroke-width="1.5" stroke-linecap="round" stroke-linejoin="round"/>
<path d="M14.53 9.46997L22 1.99997" stroke="#292D32" stroke-width="1.5" stroke-linecap="round" stroke-linejoin="round"/>
<path d="M2 22L9.47 14.53" stroke="#292D32" stroke-width="1.5" stroke-linecap="round" stroke-linejoin="round"/>
</svg>
