<svg width="24" height="24" viewBox="0 0 24 24" fill="none" xmlns="http://www.w3.org/2000/svg">
<path d="M8.42002 12.0001C8.42002 10.0201 10.02 8.42008 12 8.42008C13.98 8.42008 15.58 10.0201 15.58 12.0001C15.58 13.9801 13.98 15.5801 12 15.5801C10.02 15.5801 8.42002 13.9801 8.42002 12.0001Z" stroke="#292D32" stroke-width="1.5" stroke-linecap="round" stroke-linejoin="round"/>
<path d="M12 3.73003C8.46997 3.73003 5.17997 5.81003 2.88997 9.41003C1.98997 10.82 1.98997 13.19 2.88997 14.6C5.17997 18.2 8.46997 20.28 12 20.28C15.53 20.28 18.82 18.2 21.11 14.6C22.01 13.19 22.01 10.82 21.11 9.41003C18.82 5.81003 15.53 3.73003 12 3.73003Z" stroke="#292D32" stroke-width="1.5" stroke-linecap="round" stroke-linejoin="round"/>
</svg>
